<?xml version="1.0" encoding="UTF-8" standalone="no" ?>
<!DOCTYPE svg PUBLIC "-//W3C//DTD SVG 1.1//EN" "http://www.w3.org/Graphics/SVG/1.1/DTD/svg11.dtd">
<svg xmlns="http://www.w3.org/2000/svg" xmlns:xlink="http://www.w3.org/1999/xlink" version="1.1" width="414.5942" height="426.17199999999997" xml:space="preserve">
<desc>Created with Fabric.js 1.6.0-rc.1</desc>
<defs></defs>
<g style="stroke: none; stroke-width: 1; stroke-dasharray: none; stroke-linecap: butt; stroke-linejoin: miter; stroke-miterlimit: 10; fill: none; fill-rule: nonzero; opacity: 1;" transform="translate(10 10) scale(9.49 9.49)" >
  <path d="m 143.878 88.957 l 3.186 -4.847 c 0 0 0.138 16.337 12.182 19.383 l -4.291 6.367 c -0.001 0 -12.877 -10.521 -11.077 -20.903 z" style="stroke: none; stroke-width: 1; stroke-dasharray: none; stroke-linecap: butt; stroke-linejoin: miter; stroke-miterlimit: 10; fill: #000001; fill-rule: nonzero; opacity: 1;" transform=" matrix(1.0000000239234461 0 0 1.0000000239234461 -130.71100312705758 -76.36700182696181) " stroke-linecap="round" />
  <path d="m 137.927 109.86 c 0 0 5.813 -16.336 3.322 -22.98 l 5.814 -2.77 c 0 0 2.492 16.89 -9.136 25.75 z" style="stroke: none; stroke-width: 1; stroke-dasharray: none; stroke-linecap: butt; stroke-linejoin: miter; stroke-miterlimit: 10; fill: #ff0001; fill-rule: nonzero; opacity: 1;" transform=" matrix(1.0000000239234461 0 0 1.0000000239234461 -130.71100312705758 -76.36700182696181) " stroke-linecap="round" />
  <path d="m 153.154 104.877 l 1.8 4.982 l 4.291 -6.367 c 0 0 -4.291 -8.168 2.631 -19.383 c 0 0.001 -10.383 5.125 -8.722 20.768 z" style="stroke: none; stroke-width: 1; stroke-dasharray: none; stroke-linecap: butt; stroke-linejoin: miter; stroke-miterlimit: 10; fill: #ff0001; fill-rule: nonzero; opacity: 1;" transform=" matrix(1.0000000239234461 0 0 1.0000000239234461 -130.71100312705758 -76.36700182696181) " stroke-linecap="round" />
  <path d="m 150.39 76.367 c -3.284 0 -6.392 0.76 -9.155 2.109 c 2.255 -0.914 4.718 -1.422 7.299 -1.422 c 10.746 0 19.457 8.711 19.457 19.457 c 0 10.745 -8.711 19.456 -19.457 19.456 c -7.97 0 -14.815 -4.794 -17.823 -11.654 c 2.892 8.076 10.609 13.854 19.68 13.854 c 11.544 0 20.9 -9.356 20.9 -20.9 c -0.001 -11.543 -9.357 -20.9 -20.901 -20.9 z" style="stroke: none; stroke-width: 1; stroke-dasharray: none; stroke-linecap: butt; stroke-linejoin: miter; stroke-miterlimit: 10; fill: #000000; fill-rule: nonzero; opacity: 1;" transform=" matrix(1.0000000239234461 0 0 1.0000000239234461 -130.71100312705758 -76.36700182696181) " stroke-linecap="round" />
</g>
</svg>